<?xml version="1.0" encoding="utf-8"?>
<!-- Generator: Adobe Illustrator 16.0.0, SVG Export Plug-In . SVG Version: 6.00 Build 0)  -->
<!DOCTYPE svg PUBLIC "-//W3C//DTD SVG 1.1//EN" "http://www.w3.org/Graphics/SVG/1.1/DTD/svg11.dtd">
<svg version="1.1" id="Layer_1" xmlns="http://www.w3.org/2000/svg" xmlns:xlink="http://www.w3.org/1999/xlink" x="0px" y="0px"
	 width="297.78px" height="341.83px" viewBox="0 0 297.78 341.83" enable-background="new 0 0 297.78 341.83" xml:space="preserve">
<g>
	<path fill="#010101" d="M-0.003,200.71l50.516-38.639c0,0,34.154-62.394,91.908-38.794L290.098,0.188
		c0,0,27.548,57.58-21.663,96.218L123.386,209.707c0,0-19.698-24.414-66.296-33.602l12.821-6.671c0,0,21.16-4.814,17.18-15.764
		c0,0-10.792-4.468-19.822,9.88L-0.003,200.71z"/>
	<path fill="#010101" d="M229.749,258.163l-43.011,29.608c7.141,15.701,13.403,33.697,18.328,54.245
		C212.869,338.241,241.108,320.147,229.749,258.163z"/>
	<path fill="#010101" d="M266.468,127.838l-122.742,96.566c11.502,11.483,22.845,25.86,33.007,43.735l71.359-54.498
		C276.316,193.976,266.468,127.838,266.468,127.838z"/>
</g>
</svg>
